<svg width="2761" height="651" viewBox="0 0 2761 651" fill="none" xmlns="http://www.w3.org/2000/svg">
<g clip-path="url(#clip0_1118_44)">
<rect x="2043" y="286" width="161" height="161" fill="#818CF8"/>
<path d="M681.615 501V351.2C681.615 328.747 687.313 308.807 698.707 291.38C710.101 273.619 726.019 259.711 746.462 249.657C766.904 239.604 790.698 234.577 817.843 234.577C844.988 234.577 868.447 239.604 888.219 249.657C907.991 259.711 923.072 273.619 933.461 291.38C944.185 308.807 949.547 328.747 949.547 351.2V501H853.031V357.232C853.031 350.865 851.523 345 848.507 339.638C845.491 333.941 841.134 329.417 835.437 326.066C830.075 322.379 823.54 320.536 815.832 320.536C808.125 320.536 801.255 322.379 795.222 326.066C789.525 329.417 785.169 333.941 782.153 339.638C779.136 345 777.628 350.865 777.628 357.232V501H681.615ZM1098.42 501C1072.95 501 1053.01 493.795 1038.6 479.385C1024.19 464.974 1016.99 445.369 1016.99 420.57V180.287H1113.5V411.522C1113.5 414.873 1114.68 417.722 1117.02 420.068C1119.37 422.078 1122.22 423.084 1125.57 423.084H1182.37V501H1098.42ZM977.78 314.001V240.609H1182.37V314.001H977.78ZM1219.62 501V321.541C1219.62 296.742 1226.83 277.137 1241.24 262.727C1255.65 248.317 1275.76 241.112 1301.56 241.112H1385.01V314.001H1335.24C1329.54 314.001 1324.85 315.844 1321.16 319.531C1317.81 322.882 1316.14 327.406 1316.14 333.103V501H1219.62ZM1559.33 501C1530.18 501 1504.2 495.973 1481.42 485.919C1458.63 475.866 1440.53 461.288 1427.13 442.186C1414.06 422.749 1407.52 399.122 1407.52 371.307C1407.52 340.811 1414.06 315.509 1427.13 295.402C1440.2 275.294 1457.12 260.214 1477.9 250.16C1499.01 239.771 1521.13 234.577 1544.25 234.577C1568.04 234.577 1589.33 239.604 1608.09 249.657C1627.19 259.376 1642.27 273.451 1653.33 291.883C1664.73 310.315 1670.42 332.433 1670.42 358.237C1670.42 364.605 1670.09 371.977 1669.42 380.356C1668.75 388.398 1667.74 395.269 1666.4 400.966H1506.55C1507.89 406.663 1510.4 411.522 1514.09 415.544C1517.78 419.23 1522.8 421.911 1529.17 423.586C1535.54 425.262 1542.74 426.1 1550.79 426.1H1643.78V501H1559.33ZM1502.03 347.681H1581.45C1581.45 343.66 1580.95 339.806 1579.94 336.119C1578.94 332.433 1577.26 329.082 1574.91 326.066C1572.9 322.714 1570.39 319.866 1567.37 317.52C1564.36 314.839 1560.67 312.828 1556.32 311.488C1552.29 310.147 1547.77 309.477 1542.74 309.477C1536.38 309.477 1530.68 310.482 1525.65 312.493C1520.96 314.504 1516.94 317.185 1513.59 320.536C1510.24 323.887 1507.55 327.909 1505.54 332.6C1503.87 337.292 1502.7 342.319 1502.03 347.681ZM1707.6 501V134.04H1803.62V501H1707.6ZM1847.02 501V134.04H1943.03V501H1847.02ZM2123.17 507.032C2097.03 507.032 2073.07 501.335 2051.28 489.941C2029.84 478.547 2012.58 462.628 1999.51 442.186C1986.77 421.408 1980.41 397.614 1980.41 370.805C1980.41 343.995 1986.77 320.368 1999.51 299.926C2012.58 279.483 2030 263.565 2051.79 252.171C2073.57 240.441 2097.53 234.577 2123.67 234.577C2149.81 234.577 2173.6 240.441 2195.05 252.171C2216.5 263.565 2233.59 279.483 2246.33 299.926C2259.06 320.368 2265.43 343.995 2265.43 370.805C2265.43 397.614 2259.06 421.408 2246.33 442.186C2233.59 462.628 2216.33 478.547 2194.55 489.941C2173.1 501.335 2149.31 507.032 2123.17 507.032ZM2123.17 420.57C2132.22 420.57 2140.26 418.392 2147.3 414.035C2154.33 409.679 2159.7 403.814 2163.38 396.441C2167.4 388.734 2169.41 380.02 2169.41 370.302C2169.41 360.583 2167.4 352.038 2163.38 344.665C2159.7 337.292 2154.33 331.427 2147.3 327.071C2140.26 322.714 2132.22 320.536 2123.17 320.536C2114.12 320.536 2106.08 322.714 2099.04 327.071C2092 331.427 2086.47 337.292 2082.45 344.665C2078.43 352.038 2076.42 360.583 2076.42 370.302C2076.42 380.02 2078.43 388.734 2082.45 396.441C2086.47 403.814 2092 409.679 2099.04 414.035C2106.08 418.392 2114.12 420.57 2123.17 420.57Z" fill="#818CF8"/>
<path d="M450.278 132.5L381.778 132.5L381.778 269.5L450.278 269.5L450.278 132.5ZM538.131 201L606.631 201C606.631 163.168 575.962 132.5 538.131 132.5L538.131 201ZM469.631 432.727L469.631 501.227L606.631 501.227L606.631 432.727L469.631 432.727ZM450.278 269.5L538.131 269.5L538.131 132.5L450.278 132.5L450.278 269.5ZM469.631 201L469.631 432.727L606.631 432.727L606.631 201L469.631 201Z" fill="#731ACC"/>
<path d="M292.399 133.773H360.899V270.773H292.399V133.773ZM202 202.273H133.5C133.5 164.442 164.168 133.773 202 133.773L202 202.273ZM270.5 434V502.5H133.5V434H270.5ZM292.399 270.773H202V133.773H292.399V270.773ZM270.5 202.273V434H133.5V202.273H270.5Z" fill="#731ACC"/>
<path d="M367.518 367.156L367.518 434" stroke="#8E64E7" stroke-width="137" stroke-linecap="square" stroke-linejoin="round"/>
</g>
<defs>
<clipPath id="clip0_1118_44">
<rect width="2761" height="651" fill="white"/>
</clipPath>
</defs>
</svg>
