<svg width="512" height="512" viewBox="0 0 512 512" fill="none" xmlns="http://www.w3.org/2000/svg">
<path d="M336.278 70.4999L267.778 70.4999L267.778 207.5L336.278 207.5L336.278 70.4999ZM424.131 139L492.631 139C492.631 101.168 461.962 70.4999 424.131 70.4999L424.131 139ZM355.631 370.727L355.631 439.227L492.631 439.227L492.631 370.727L355.631 370.727ZM336.278 207.5L424.131 207.5L424.131 70.4999L336.278 70.4999L336.278 207.5ZM355.631 139L355.631 370.727L492.631 370.727L492.631 139L355.631 139Z" fill="#731ACC"/>
<path d="M178.399 71.7732H246.899V208.773H178.399V71.7732ZM88 140.273H19.5C19.5 102.442 50.1685 71.7732 88 71.7732L88 140.273ZM156.5 372V440.5H19.5V372H156.5ZM178.399 208.773H88V71.7732H178.399V208.773ZM156.5 140.273V372H19.5V140.273H156.5Z" fill="#731ACC"/>
<path d="M253.518 305.156L253.518 372" stroke="#818CF8" stroke-width="137" stroke-linecap="square" stroke-linejoin="round"/>
</svg>
